<svg width="500" height="500" viewBox="0 0 500 500" fill="none" xmlns="http://www.w3.org/2000/svg">
<g clip-path="url(#clip0_2001_12)">
<g clip-path="url(#clip1_2001_12)">
<path d="M148.62 457.003C148.186 457.197 147.753 457.413 147.324 457.625C143.898 459.33 140.67 461.585 137.733 463.873C134.982 466.017 132.223 468.739 131.229 472.082C129.671 477.32 132.752 488.392 132.752 488.392C132.752 488.392 126.128 499.314 124.895 505.448C123.735 511.218 124.541 517.282 125.508 523.088C126.148 526.932 127.589 530.604 128.909 534.271C137.631 558.483 145.055 580.761 158.771 605.479C163.666 614.301 169.726 616.921 177.033 618.554C183.794 620.065 191.673 618.584 197.477 614.8C202.033 611.83 204.804 606.43 206.638 601.311C210.463 590.635 208.83 569.376 209.747 567.428C210.663 565.481 211.256 561.549 211.256 561.549C211.256 561.549 218.074 563.648 221.559 563.431C226.46 563.127 231.478 561.664 235.611 559.013C240.982 555.569 245.805 550.62 248.445 544.812C250.323 540.682 250.055 531.292 250.055 531.292L274.026 520.114C274.026 520.114 281.047 526.354 285.418 527.571C291.564 529.282 298.455 528.768 304.546 526.868C309.234 525.406 313.579 522.502 316.963 518.944C319.369 516.413 322.144 509.841 322.144 509.841C322.144 509.841 325.537 511.914 327.618 512.464C329.698 513.014 344.919 527.937 355.555 531.869C360.656 533.755 366.589 535.096 371.793 533.515C378.423 531.502 384.622 526.418 387.81 520.267C391.255 513.62 393.143 507.294 389.532 497.874C379.414 471.478 367.12 451.471 354.178 429.226C352.219 425.858 350.316 422.401 347.782 419.439C343.956 414.967 339.845 410.444 334.679 407.624C329.188 404.626 316.563 402.679 316.563 402.679C316.563 402.679 310.047 393.211 305.033 391.036C301.833 389.649 297.989 390.005 294.579 390.735C287.297 392.293 279.364 394.841 274.454 400.44C271.63 403.661 271.037 408.718 270.436 412.646C269.836 416.575 273.266 426.532 273.266 426.532L238.478 442.584L238.427 442.476L225.974 448.339L213.463 454.117L213.513 454.225L178.855 470.557C178.855 470.557 173.432 461.528 170.037 459.463C166.641 457.398 162.386 454.602 158.104 454.695C154.847 454.766 151.662 455.64 148.62 457.003ZM301.178 416.219C305.873 414.029 311.456 416.061 313.645 420.757C315.835 425.452 313.803 431.034 309.107 433.224C304.412 435.413 298.83 433.381 296.64 428.686C294.451 423.991 296.483 418.408 301.178 416.219ZM148.161 493.427L161.846 487.046L166.592 497.224C166.592 497.224 164.678 506.07 162.759 506.869C160.721 507.718 152.907 503.605 152.907 503.605L148.161 493.427ZM288.972 443.898C293.667 441.708 299.25 443.74 301.439 448.435C303.629 453.131 301.597 458.713 296.901 460.902C292.206 463.092 286.624 461.06 284.434 456.365C282.245 451.669 284.277 446.087 288.972 443.898ZM330.243 424.652C334.939 422.463 340.521 424.495 342.711 429.19C344.9 433.885 342.868 439.468 338.173 441.657C333.478 443.847 327.895 441.815 325.706 437.12C323.516 432.424 325.548 426.842 330.243 424.652ZM141.241 513.541L151.419 508.795C151.419 508.795 160.056 510.683 161.071 512.643C162.028 514.489 157.808 522.495 157.808 522.495L147.63 527.241L141.241 513.541ZM171.527 499.418L181.705 494.672L188.094 508.372L177.916 513.118C177.916 513.118 169.07 511.205 168.271 509.286C167.422 507.248 171.527 499.418 171.527 499.418ZM253.622 465.576L268.966 463.729L257.695 474.311L253.622 465.576ZM207.23 487.583L220.492 481.398L224.279 489.52L211.017 495.704L207.23 487.583ZM166.582 515.06C168.428 514.104 176.434 518.324 176.434 518.324L181.18 528.502L167.495 534.883L162.749 524.705C162.749 524.705 164.622 516.076 166.582 515.06ZM318.03 452.353C322.725 450.164 328.308 452.196 330.497 456.891C332.687 461.586 330.655 467.169 325.959 469.358C321.264 471.548 315.682 469.516 313.492 464.821C311.303 460.125 313.335 454.543 318.03 452.353ZM212.887 519.478C222.059 515.201 232.953 519.166 237.23 528.338C241.507 537.51 237.549 548.42 228.377 552.697C219.205 556.974 208.304 552.993 204.027 543.821C199.75 534.649 203.715 523.755 212.887 519.478ZM287.858 484.518C297.029 480.242 307.924 484.206 312.201 493.379C316.478 502.551 312.52 513.46 303.348 517.737C294.176 522.014 283.274 518.034 278.997 508.862C274.72 499.69 278.685 488.795 287.858 484.518Z" fill="white"/>
</g>
<g clip-path="url(#clip2_2001_12)">
<path d="M148.62 -42.9975C148.186 -42.8027 147.753 -42.5873 147.324 -42.3746C143.898 -40.67 140.67 -38.415 137.733 -36.1267C134.982 -33.9833 132.223 -31.2608 131.229 -27.9179C129.671 -22.6796 132.752 -11.6085 132.752 -11.6085C132.752 -11.6085 126.128 -0.686428 124.895 5.44801C123.735 11.2182 124.541 17.2821 125.508 23.0875C126.148 26.9315 127.589 30.6043 128.909 34.2708C137.631 58.4833 145.055 80.7614 158.771 105.479C163.666 114.301 169.726 116.921 177.033 118.554C183.794 120.065 191.673 118.584 197.477 114.8C202.033 111.83 204.804 106.43 206.638 101.311C210.463 90.635 208.83 69.3761 209.747 67.4282C210.663 65.4809 211.256 61.5491 211.256 61.5491C211.256 61.5491 218.074 63.6479 221.559 63.4314C226.46 63.1268 231.478 61.6642 235.611 59.0132C240.982 55.5687 245.805 50.62 248.445 44.8119C250.323 40.6816 250.055 31.2918 250.055 31.2918L274.026 20.114C274.026 20.114 281.047 26.3541 285.418 27.5712C291.564 29.2824 298.455 28.7683 304.546 26.8684C309.234 25.4061 313.579 22.5024 316.963 18.9436C319.369 16.4134 322.144 9.84088 322.144 9.84088C322.144 9.84088 325.537 11.9143 327.618 12.4642C329.698 13.0142 344.919 27.9372 355.555 31.8695C360.656 33.7552 366.589 35.0963 371.793 33.5154C378.423 31.5016 384.622 26.418 387.81 20.2667C391.255 13.6198 393.143 7.29367 389.532 -2.12632C379.414 -28.5222 367.12 -48.5289 354.178 -70.7738C352.219 -74.1421 350.316 -77.5993 347.782 -80.5607C343.956 -85.0329 339.845 -89.5558 334.679 -92.3761C329.188 -95.3745 316.563 -97.3211 316.563 -97.3211C316.563 -97.3211 310.047 -106.789 305.033 -108.964C301.833 -110.351 297.989 -109.995 294.579 -109.265C287.297 -107.707 279.364 -105.159 274.454 -99.5595C271.63 -96.3391 271.037 -91.2822 270.436 -87.3538C269.836 -83.4253 273.266 -73.4676 273.266 -73.4676L238.478 -57.4156L238.427 -57.5241L225.974 -51.6605L213.463 -45.8831L213.513 -45.7745L178.855 -29.443C178.855 -29.443 173.432 -38.4719 170.037 -40.5365C166.641 -42.6017 162.386 -45.398 158.104 -45.3047C154.847 -45.2338 151.662 -44.3597 148.62 -42.9975ZM301.178 -83.7812C305.873 -85.9706 311.456 -83.9387 313.645 -79.2435C315.835 -74.5482 313.803 -68.9657 309.107 -66.7763C304.412 -64.5869 298.83 -66.6187 296.64 -71.314C294.451 -76.0093 296.483 -81.5917 301.178 -83.7812ZM148.161 -6.57264L161.846 -12.9538L166.592 -2.77593C166.592 -2.77593 164.678 6.06979 162.759 6.86912C160.721 7.71778 152.907 3.60526 152.907 3.60526L148.161 -6.57264ZM288.972 -56.1024C293.667 -58.2918 299.25 -56.2599 301.439 -51.5647C303.629 -46.8694 301.597 -41.2869 296.901 -39.0975C292.206 -36.9081 286.624 -38.94 284.434 -43.6352C282.245 -48.3305 284.277 -53.9129 288.972 -56.1024ZM330.243 -75.3476C334.939 -77.537 340.521 -75.5051 342.711 -70.8099C344.9 -66.1146 342.868 -60.5322 338.173 -58.3427C333.478 -56.1533 327.895 -58.1852 325.706 -62.8804C323.516 -67.5757 325.548 -73.1581 330.243 -75.3476ZM141.241 13.5411L151.419 8.79509C151.419 8.79509 160.056 10.6834 161.071 12.6432C162.028 14.4892 157.808 22.4952 157.808 22.4952L147.63 27.2412L141.241 13.5411ZM171.527 -0.581544L181.705 -5.32755L188.094 8.37223L177.916 13.1182C177.916 13.1182 169.07 11.205 168.271 9.28571C167.422 7.24806 171.527 -0.581544 171.527 -0.581544ZM253.622 -34.4238L268.966 -36.2709L257.695 -25.6885L253.622 -34.4238ZM207.23 -12.4175L220.492 -18.6016L224.279 -10.4805L211.017 -4.29632L207.23 -12.4175ZM166.582 15.0604C168.428 14.1038 176.434 18.3243 176.434 18.3243L181.18 28.5022L167.495 34.8833L162.749 24.7054C162.749 24.7054 164.622 16.0759 166.582 15.0604ZM318.03 -47.6466C322.725 -49.836 328.308 -47.8041 330.497 -43.1089C332.687 -38.4136 330.655 -32.8311 325.959 -30.6417C321.264 -28.4523 315.682 -30.4842 313.492 -35.1794C311.303 -39.8747 313.335 -45.4571 318.03 -47.6466ZM212.887 19.4778C222.059 15.2009 232.953 19.1658 237.23 28.338C241.507 37.5102 237.549 48.4197 228.377 52.6967C219.205 56.9738 208.304 52.9931 204.027 43.8211C199.75 34.6491 203.715 23.7548 212.887 19.4778ZM287.858 -15.4816C297.029 -19.7585 307.924 -15.7936 312.201 -6.62136C316.478 2.55084 312.52 13.4603 303.348 17.7373C294.176 22.0144 283.274 18.0337 278.997 8.86168C274.72 -0.310334 278.685 -11.2045 287.858 -15.4816Z" fill="white"/>
</g>
<g clip-path="url(#clip3_2001_12)">
<path d="M-101.38 207.003C-101.814 207.197 -102.247 207.413 -102.676 207.625C-106.102 209.33 -109.33 211.585 -112.267 213.873C-115.018 216.017 -117.777 218.739 -118.771 222.082C-120.329 227.32 -117.248 238.392 -117.248 238.392C-117.248 238.392 -123.872 249.314 -125.105 255.448C-126.265 261.218 -125.459 267.282 -124.492 273.088C-123.852 276.932 -122.411 280.604 -121.091 284.271C-112.369 308.483 -104.945 330.761 -91.2289 355.479C-86.3336 364.301 -80.2739 366.921 -72.9675 368.554C-66.2059 370.065 -58.3269 368.584 -52.5232 364.8C-47.9675 361.83 -45.1961 356.43 -43.3619 351.311C-39.5369 340.635 -41.1696 319.376 -40.253 317.428C-39.3368 315.481 -38.7443 311.549 -38.7443 311.549C-38.7443 311.549 -31.9257 313.648 -28.4409 313.431C-23.5401 313.127 -18.5219 311.664 -14.3885 309.013C-9.01806 305.569 -4.19453 300.62 -1.5548 294.812C0.322514 290.682 0.0551775 281.292 0.0551775 281.292L24.0261 270.114C24.0261 270.114 31.0471 276.354 35.418 277.571C41.5644 279.282 48.4554 278.768 54.5461 276.868C59.2336 275.406 63.5793 272.502 66.9634 268.944C69.3693 266.413 72.1444 259.841 72.1444 259.841C72.1444 259.841 75.5372 261.914 77.6177 262.464C79.6984 263.014 94.9188 277.937 105.555 281.869C110.656 283.755 116.589 285.096 121.793 283.515C128.423 281.502 134.622 276.418 137.81 270.267C141.255 263.62 143.143 257.294 139.532 247.874C129.414 221.478 117.12 201.471 104.178 179.226C102.219 175.858 100.316 172.401 97.7822 169.439C93.9562 164.967 89.8446 160.444 84.6792 157.624C79.1879 154.626 66.563 152.679 66.563 152.679C66.563 152.679 60.0469 143.211 55.0326 141.036C51.8328 139.649 47.9891 140.005 44.5787 140.735C37.2966 142.293 29.3636 144.841 24.4539 150.44C21.6299 153.661 21.0369 158.718 20.4365 162.646C19.836 166.575 23.2661 176.532 23.2661 176.532L-11.5224 192.584L-11.573 192.476L-24.0257 198.339L-36.5373 204.117L-36.4866 204.225L-71.1449 220.557C-71.1449 220.557 -76.5684 211.528 -79.9634 209.463C-83.3587 207.398 -87.6137 204.602 -91.8959 204.695C-95.1532 204.766 -98.3384 205.64 -101.38 207.003ZM51.1779 166.219C55.8733 164.029 61.4557 166.061 63.6451 170.757C65.8346 175.452 63.8026 181.034 59.1074 183.224C54.4121 185.413 48.8297 183.381 46.6403 178.686C44.4508 173.991 46.4826 168.408 51.1779 166.219ZM-101.839 243.427L-88.1545 237.046L-83.4085 247.224C-83.4085 247.224 -85.3217 256.07 -87.241 256.869C-89.2786 257.718 -97.093 253.605 -97.093 253.605L-101.839 243.427ZM38.9719 193.898C43.6672 191.708 49.2496 193.74 51.4391 198.435C53.6285 203.131 51.5966 208.713 46.9014 210.902C42.2061 213.092 36.6236 211.06 34.4342 206.365C32.2447 201.669 34.2767 196.087 38.9719 193.898ZM80.2433 174.652C84.9386 172.463 90.5211 174.495 92.7105 179.19C94.9 183.885 92.8681 189.468 88.1728 191.657C83.4775 193.847 77.8951 191.815 75.7056 187.12C73.5162 182.424 75.548 176.842 80.2433 174.652ZM-108.759 263.541L-98.5809 258.795C-98.5809 258.795 -89.9441 260.683 -88.9285 262.643C-87.972 264.489 -92.1924 272.495 -92.1924 272.495L-102.37 277.241L-108.759 263.541ZM-78.4726 249.418L-68.2948 244.672L-61.9065 258.372L-72.0843 263.118C-72.0843 263.118 -80.93 261.205 -81.7294 259.286C-82.578 257.248 -78.4726 249.418 -78.4726 249.418ZM3.6216 215.576L18.9656 213.729L7.69493 224.311L3.6216 215.576ZM-42.7696 237.583L-29.5076 231.398L-25.7207 239.52L-38.9827 245.704L-42.7696 237.583ZM-83.4184 265.06C-81.5724 264.104 -73.5664 268.324 -73.5664 268.324L-68.8204 278.502L-82.5047 284.883L-87.2507 274.705C-87.2507 274.705 -85.3783 266.076 -83.4184 265.06ZM68.03 202.353C72.7253 200.164 78.3078 202.196 80.4972 206.891C82.6866 211.586 80.6547 217.169 75.9595 219.358C71.2642 221.548 65.6817 219.516 63.4923 214.821C61.3028 210.125 63.3347 204.543 68.03 202.353ZM-37.1131 269.478C-27.9413 265.201 -17.0469 269.166 -12.7698 278.338C-8.49278 287.51 -12.4507 298.42 -21.6229 302.697C-30.7951 306.974 -41.6964 302.993 -45.9733 293.821C-50.2503 284.649 -46.2852 273.755 -37.1131 269.478ZM37.8576 234.518C47.0294 230.242 57.9238 234.206 62.2008 243.379C66.4779 252.551 62.52 263.46 53.3478 267.737C44.1756 272.014 33.2743 268.034 28.9973 258.862C24.7204 249.69 28.6854 238.795 37.8576 234.518Z" fill="white"/>
</g>
<g clip-path="url(#clip4_2001_12)">
<path d="M398.62 207.003C398.186 207.197 397.753 207.413 397.324 207.625C393.898 209.33 390.67 211.585 387.733 213.873C384.982 216.017 382.223 218.739 381.229 222.082C379.671 227.32 382.752 238.392 382.752 238.392C382.752 238.392 376.128 249.314 374.895 255.448C373.735 261.218 374.541 267.282 375.508 273.088C376.148 276.932 377.589 280.604 378.909 284.271C387.631 308.483 395.055 330.761 408.771 355.479C413.666 364.301 419.726 366.921 427.033 368.554C433.794 370.065 441.673 368.584 447.477 364.8C452.033 361.83 454.804 356.43 456.638 351.311C460.463 340.635 458.83 319.376 459.747 317.428C460.663 315.481 461.256 311.549 461.256 311.549C461.256 311.549 468.074 313.648 471.559 313.431C476.46 313.127 481.478 311.664 485.611 309.013C490.982 305.569 495.805 300.62 498.445 294.812C500.323 290.682 500.055 281.292 500.055 281.292L524.026 270.114C524.026 270.114 531.047 276.354 535.418 277.571C541.564 279.282 548.455 278.768 554.546 276.868C559.234 275.406 563.579 272.502 566.963 268.944C569.369 266.413 572.144 259.841 572.144 259.841C572.144 259.841 575.537 261.914 577.618 262.464C579.698 263.014 594.919 277.937 605.555 281.869C610.656 283.755 616.589 285.096 621.793 283.515C628.423 281.502 634.622 276.418 637.81 270.267C641.255 263.62 643.143 257.294 639.532 247.874C629.414 221.478 617.12 201.471 604.178 179.226C602.219 175.858 600.316 172.401 597.782 169.439C593.956 164.967 589.845 160.444 584.679 157.624C579.188 154.626 566.563 152.679 566.563 152.679C566.563 152.679 560.047 143.211 555.033 141.036C551.833 139.649 547.989 140.005 544.579 140.735C537.297 142.293 529.364 144.841 524.454 150.44C521.63 153.661 521.037 158.718 520.436 162.646C519.836 166.575 523.266 176.532 523.266 176.532L488.478 192.584L488.427 192.476L475.974 198.339L463.463 204.117L463.513 204.225L428.855 220.557C428.855 220.557 423.432 211.528 420.037 209.463C416.641 207.398 412.386 204.602 408.104 204.695C404.847 204.766 401.662 205.64 398.62 207.003ZM551.178 166.219C555.873 164.029 561.456 166.061 563.645 170.757C565.835 175.452 563.803 181.034 559.107 183.224C554.412 185.413 548.83 183.381 546.64 178.686C544.451 173.991 546.483 168.408 551.178 166.219ZM398.161 243.427L411.846 237.046L416.592 247.224C416.592 247.224 414.678 256.07 412.759 256.869C410.721 257.718 402.907 253.605 402.907 253.605L398.161 243.427ZM538.972 193.898C543.667 191.708 549.25 193.74 551.439 198.435C553.629 203.131 551.597 208.713 546.901 210.902C542.206 213.092 536.624 211.06 534.434 206.365C532.245 201.669 534.277 196.087 538.972 193.898ZM580.243 174.652C584.939 172.463 590.521 174.495 592.711 179.19C594.9 183.885 592.868 189.468 588.173 191.657C583.478 193.847 577.895 191.815 575.706 187.12C573.516 182.424 575.548 176.842 580.243 174.652ZM391.241 263.541L401.419 258.795C401.419 258.795 410.056 260.683 411.071 262.643C412.028 264.489 407.808 272.495 407.808 272.495L397.63 277.241L391.241 263.541ZM421.527 249.418L431.705 244.672L438.094 258.372L427.916 263.118C427.916 263.118 419.07 261.205 418.271 259.286C417.422 257.248 421.527 249.418 421.527 249.418ZM503.622 215.576L518.966 213.729L507.695 224.311L503.622 215.576ZM457.23 237.583L470.492 231.398L474.279 239.52L461.017 245.704L457.23 237.583ZM416.582 265.06C418.428 264.104 426.434 268.324 426.434 268.324L431.18 278.502L417.495 284.883L412.749 274.705C412.749 274.705 414.622 266.076 416.582 265.06ZM568.03 202.353C572.725 200.164 578.308 202.196 580.497 206.891C582.687 211.586 580.655 217.169 575.959 219.358C571.264 221.548 565.682 219.516 563.492 214.821C561.303 210.125 563.335 204.543 568.03 202.353ZM462.887 269.478C472.059 265.201 482.953 269.166 487.23 278.338C491.507 287.51 487.549 298.42 478.377 302.697C469.205 306.974 458.304 302.993 454.027 293.821C449.75 284.649 453.715 273.755 462.887 269.478ZM537.858 234.518C547.029 230.242 557.924 234.206 562.201 243.379C566.478 252.551 562.52 263.46 553.348 267.737C544.176 272.014 533.274 268.034 528.997 258.862C524.72 249.69 528.685 238.795 537.858 234.518Z" fill="white"/>
</g>
</g>
<defs>
<clipPath id="clip0_2001_12">
<rect width="500" height="500" fill="white"/>
</clipPath>
<clipPath id="clip1_2001_12">
<rect width="256" height="256" fill="white" transform="translate(80 438.19) rotate(-25)"/>
</clipPath>
<clipPath id="clip2_2001_12">
<rect width="256" height="256" fill="white" transform="translate(80 -61.8097) rotate(-25)"/>
</clipPath>
<clipPath id="clip3_2001_12">
<rect width="256" height="256" fill="white" transform="translate(-170 188.19) rotate(-25)"/>
</clipPath>
<clipPath id="clip4_2001_12">
<rect width="256" height="256" fill="white" transform="translate(330 188.19) rotate(-25)"/>
</clipPath>
</defs>
</svg>
